<svg xmlns="http://www.w3.org/2000/svg" viewBox="0 0 1024 1024" width="1024" height="1024">
  <defs>
    <linearGradient id="bg" x1="0" y1="0" x2="0" y2="1">
      <stop offset="0" stop-color="#F2541B"/>
      <stop offset="1" stop-color="#B8230A"/>
    </linearGradient>
    <linearGradient id="flame" x1="0" y1="0" x2="0" y2="1">
      <stop offset="0" stop-color="#FFE9A8"/>
      <stop offset="0.55" stop-color="#FFC247"/>
      <stop offset="1" stop-color="#FF8A2A"/>
    </linearGradient>
  </defs>
  <rect width="1024" height="1024" fill="url(#bg)"/>
  <!-- flame -->
  <path fill="url(#flame)" d="M512 168
    C 556 300 656 352 656 488
    C 656 540 632 580 612 612
    C 668 600 708 556 716 500
    C 760 568 776 660 740 740
    C 690 852 596 904 512 904
    C 410 904 300 836 286 700
    C 276 604 332 560 356 512
    C 372 560 416 568 440 556
    C 404 488 416 396 470 344
    C 470 420 512 436 540 452
    C 520 360 476 268 512 168 Z"/>
  <!-- inner core -->
  <path fill="#FFF6EC" opacity="0.9" d="M512 470
    C 548 540 560 600 532 668
    C 576 656 588 712 552 752
    C 520 786 470 770 458 716
    C 446 652 496 616 484 560
    C 506 548 500 510 512 470 Z"/>
</svg>
